<svg xmlns="http://www.w3.org/2000/svg" width="125.598" height="133.334" viewBox="0 0 125.598 133.334">
  <g id="clap" transform="translate(-0.149 -0.266)">
    <path id="Shape" d="M48.759,133.334a2.494,2.494,0,0,1-1.184-.3L1.292,107.827a2.481,2.481,0,0,1-.99-3.362L12.4,82.249a2.467,2.467,0,0,1,1.477-1.19,2.4,2.4,0,0,1,.682-.1,2.529,2.529,0,0,1,1.142.28l1.782-10.584c1.478-9.545.09-11.908-7.647-19.723L4.043,45.083a5.355,5.355,0,0,1,.039-7.571,14.371,14.371,0,0,1,20.3.1l7.86,6.827.361-.661-4.069-6.142a5.353,5.353,0,0,1,1.5-7.418,14.242,14.242,0,0,1,7.892-2.377,14.5,14.5,0,0,1,3.161.348L51.44,9.2A9.863,9.863,0,0,1,64.808,5.252a9.683,9.683,0,0,1,3.657,3.537l1.984-3.643A9.78,9.78,0,0,1,76.317.406a9.813,9.813,0,0,1,7.5.8A9.758,9.758,0,0,1,87.09,4.115a10.078,10.078,0,0,1,1.69,4c.284-.022.556-.032.806-.032a9.849,9.849,0,0,1,6.286,2.265,9.677,9.677,0,0,1,2.9,4.178l2.653-3.191a9.858,9.858,0,0,1,17.393,5.4,9.712,9.712,0,0,1-1.676,6.375,10.8,10.8,0,0,1,4.589,2.245c4.176,3.475,5.116,9.258,2.1,12.892l-6.407,7.7A8.661,8.661,0,0,1,121,47.71a8.813,8.813,0,0,1,1.14,12.4L90.523,98.119a16.2,16.2,0,0,1-12.487,5.858c-.21,0-.408,0-.6-.012l-4.121,4.956.221.183a2.491,2.491,0,0,1,.881,1.679,2.453,2.453,0,0,1-.562,1.81L57.673,132.04a2.475,2.475,0,0,1-3.488.32L51.828,130.4l-.893,1.641a2.48,2.48,0,0,1-2.176,1.294Zm-33.267-46.4L5.838,104.659,47.77,127.5l.177-.325L13.67,98.657a2.458,2.458,0,0,1-.883-1.679,2.493,2.493,0,0,1,.563-1.81l5.2-6.249L16.308,87.7A2.448,2.448,0,0,1,15.493,86.934Zm16.16-6.017h0L18.743,96.431,55.45,126.968l12.761-15.339a.9.9,0,0,0-.107-.058.735.735,0,0,1-.146-.087L32.3,81.824a2.437,2.437,0,0,1-.652-.908Zm6.3-48.136a9.332,9.332,0,0,0-5.171,1.568.447.447,0,0,0-.111.553l4.545,6.863c6.806,10.267,8.094,14.571,4.193,25.291L36.994,78.71,69.5,105.752l4.94-5.939a2.449,2.449,0,0,1,2.2-.875,11.586,11.586,0,0,0,1.372.082,11.276,11.276,0,0,0,8.7-4.071l31.621-38.012a3.848,3.848,0,0,0-5.917-4.92L106.145,59.5l-5.388,6.475a2.477,2.477,0,0,1-3.808-3.169l5.395-6.486,0,0,.162-.193L120.015,35.08c1.253-1.507.587-4.216-1.455-5.916a5.731,5.731,0,0,0-3.574-1.377,3.257,3.257,0,0,0-2.323.857L88.94,57.164A2.477,2.477,0,1,1,85.132,54L108.581,25.8a.381.381,0,0,0,.04-.076.328.328,0,0,1,.048-.085.994.994,0,0,1,.122-.119,1.154,1.154,0,0,0,.105-.1l3.871-4.653a4.9,4.9,0,0,0-7.536-6.268l-8.078,9.71,0,.006a.028.028,0,0,1-.006.009L82.989,41.246a2.477,2.477,0,1,1-3.808-3.169L93.335,21.063l.005-.008a4.91,4.91,0,0,0-.637-6.9,4.826,4.826,0,0,0-3.117-1.134c-.154,0-.31.007-.465.022A4.87,4.87,0,0,0,85.8,14.792L58.165,48.014a2.816,2.816,0,0,1-1.947.894,2.474,2.474,0,0,1-1.915-.959L51.11,43.835a.107.107,0,0,0-.012-.016l-5.18-6.674a9.466,9.466,0,0,0-7.97-4.363ZM14.09,38.311a9.111,9.111,0,0,0-6.522,2.723.4.4,0,0,0-.1.28.4.4,0,0,0,.1.282l5.794,5.853c8.664,8.752,10.762,12.724,9.014,24L20.307,83.734l1.759.958,7.464-8.972a2.455,2.455,0,0,1,1.891-.885,2.5,2.5,0,0,1,1.542.535l3.8-10.038c2.748-7.553,2.541-10.692-1.107-16.792l-.532.977a2.479,2.479,0,0,1-3.8.684L21,41.227a9.479,9.479,0,0,0-6.77-2.915ZM79.113,4.956A4.9,4.9,0,0,0,74.8,7.514L55.994,42.049l.333.428L81.994,11.624a9.627,9.627,0,0,1,1.983-1.761,4.865,4.865,0,0,0-4.864-4.907ZM60.1,9.007a4.9,4.9,0,0,0-4.313,2.559L45.7,30.1a14.254,14.254,0,0,1,4.243,4.159l2.735,3.522L64.21,16.6l.189-.348A4.9,4.9,0,0,0,60.1,9.007Z" transform="translate(0.15 0.266)"/>
    <path id="Path" d="M3.831.018A4.216,4.216,0,1,0,8.414,3.831,4.217,4.217,0,0,0,3.831.018Z" transform="translate(29.001 91.167)"/>
  </g>
</svg>
