<svg xmlns="http://www.w3.org/2000/svg" width="152.225" height="241.677" viewBox="0 0 152.225 241.677">
  <g id="confetti" transform="translate(0)" opacity="0.486">
    <path id="Shape" d="M5.76,11.52a5.76,5.76,0,1,1,5.76-5.76A5.767,5.767,0,0,1,5.76,11.52Zm0-7.68A1.92,1.92,0,1,0,7.68,5.76,1.922,1.922,0,0,0,5.76,3.84Z" transform="translate(83 160)" fill="#fff"/>
    <path id="Shape-2" data-name="Shape" d="M5.76,11.52a5.76,5.76,0,1,1,5.76-5.76A5.767,5.767,0,0,1,5.76,11.52Zm0-7.68A1.92,1.92,0,1,0,7.68,5.76,1.922,1.922,0,0,0,5.76,3.84Z" transform="translate(32 103)" fill="#fff"/>
    <circle id="Oval" cx="3.84" cy="3.84" r="3.84" transform="translate(75.425 73)" fill="#fff"/>
    <path id="Combined_Shape" data-name="Combined Shape" d="M5.76,13.44V11.52a1.92,1.92,0,0,1,3.84,0v1.92a1.92,1.92,0,1,1-3.84,0ZM11.52,9.6a1.92,1.92,0,0,1,0-3.84h1.92a1.92,1.92,0,1,1,0,3.84Zm-9.6,0a1.92,1.92,0,0,1,0-3.84H3.84a1.92,1.92,0,0,1,0,3.84ZM5.76,3.84V1.92a1.92,1.92,0,0,1,3.84,0V3.84a1.92,1.92,0,0,1-3.84,0Z" transform="translate(129 0)" fill="#fff"/>
    <path id="Path" d="M1.92,0A1.92,1.92,0,0,0,0,1.92V3.84a1.92,1.92,0,1,0,3.84,0V1.92A1.92,1.92,0,0,0,1.92,0Z" transform="translate(138.785 117.16)" fill="#fff"/>
    <path id="Path-2" data-name="Path" d="M4.611,1.9,3.254.539A1.92,1.92,0,0,0,.539,3.254L1.9,4.611A1.92,1.92,0,0,0,4.611,1.9Z" transform="translate(144.241 114.933)" fill="#fff"/>
    <path id="Path-3" data-name="Path" d="M3.84,0H1.92a1.92,1.92,0,0,0,0,3.84H3.84A1.92,1.92,0,1,0,3.84,0Z" transform="translate(146.465 109.48)" fill="#fff"/>
    <path id="Path-4" data-name="Path" d="M4.587.539a1.92,1.92,0,0,0-2.668,0L.562,1.9A1.92,1.92,0,0,0,1.92,5.174h0a1.92,1.92,0,0,0,1.357-.563L4.634,3.254A1.92,1.92,0,0,0,4.587.539Z" transform="translate(144.217 102.716)" fill="#fff"/>
    <path id="Path-5" data-name="Path" d="M1.92,0A1.92,1.92,0,0,0,0,1.92V3.84a1.92,1.92,0,1,0,3.84,0V1.92A1.92,1.92,0,0,0,1.92,0Z" transform="translate(138.785 99.88)" fill="#fff"/>
    <path id="Path-6" data-name="Path" d="M4.611,1.9,3.254.539A1.92,1.92,0,0,0,.539,3.254L1.9,4.611A1.92,1.92,0,0,0,4.611,1.9Z" transform="translate(132.02 102.716)" fill="#fff"/>
    <path id="Shape-3" data-name="Shape" d="M5.586,22.024A1.92,1.92,0,0,1,3.695,19.77l.96-5.612L.579,10.184a1.929,1.929,0,0,1-.559-1.1A1.922,1.922,0,0,1,1.646,6.91l5.635-.82L9.806.985a2,2,0,0,1,3.445,0L15.764,6.09l5.636.82a1.931,1.931,0,0,1,1.549,1.305,1.909,1.909,0,0,1-.481,1.968l-4.079,3.974.96,5.612a1.919,1.919,0,0,1-2.785,2.023l-5.04-2.65L6.483,21.8A1.934,1.934,0,0,1,5.586,22.024Zm5.937-6.971a1.928,1.928,0,0,1,.893.22L14.9,16.585l-.476-2.775a1.92,1.92,0,0,1,.553-1.7l2.016-1.964L14.21,9.743a1.917,1.917,0,0,1-1.444-1.049L11.523,6.172,10.28,8.694A1.915,1.915,0,0,1,8.834,9.743l-2.786.406,2.018,1.964a1.919,1.919,0,0,1,.543,1.7l-.476,2.774,2.5-1.309A1.928,1.928,0,0,1,11.523,15.053Z" transform="translate(0 39)" fill="#fff" opacity="0.512"/>
    <path id="Shape-4" data-name="Shape" d="M25.257,32.677a1.92,1.92,0,0,1-1.65-2.9,9.432,9.432,0,0,0-.42-9.97,11.188,11.188,0,0,1-1.247,4.928A7.68,7.68,0,1,1,8.529,17.248a11.33,11.33,0,0,1,7.68-5.274A25.194,25.194,0,0,0,1.558,3.806,1.92,1.92,0,0,1,1.917,0a1.941,1.941,0,0,1,.274.02A28.8,28.8,0,0,1,13.118,4.262a28.818,28.818,0,0,1,8.352,8.224l.791,1.187h.007A13.4,13.4,0,0,1,26.96,31.648c-.016.031-.032.059-.05.089A1.93,1.93,0,0,1,25.257,32.677Zm-8.12-16.941h-.053a7.165,7.165,0,0,0-5.2,3.383l-.009.016-.009.016a3.84,3.84,0,1,0,6.724,3.711,7.55,7.55,0,0,0,.769-3.891c-.088-1.5-.567-2.593-1.316-3.011A1.957,1.957,0,0,0,17.137,15.736Z" transform="translate(100 209)" fill="#fff"/>
  </g>
</svg>
